<svg xmlns="http://www.w3.org/2000/svg" viewBox="0 0 1770 726"><path d="M1 539c3-6 1-15 1-22v-47c0-6-2-15 1-21l9-11 18-21 57-64a2626 2626 0 01233-227 957 957 0 01131-90c4-3 9-5 14-4 23 6 46 18 66 30 54 32 101 77 142 124a1701 1701 0 0170 87c2 2 4 6 7 7 4 1 9-1 13-2l24-7 87-23 24-6c4-1 8-3 12-1 4 1 8 6 11 9l21 21 75 74 24 23c3 3 7 8 12 9a1021 1021 0 0137-14c33-13 67-26 100-41l33-14c3-1 9-5 12-3a621 621 0 0118 23l44 63c7-3 13-8 19-12l36-24 102-66 41-26c5-2 11-8 17-8 5-1 10 3 14 5a959 959 0 01190 118c4 3 11 10 16 11 4 1 7-3 10-5 8-6 19-11 25-19 3-4 2-8 2-12V201c0-3 1-9-1-11-2-3-9-3-12-4a481 481 0 00-74-5c-39 4-76 22-111 39l-40 21c-6 3-12 9-19 11-6 1-15-4-21-6-14-4-28-6-42-8-11-1-22 1-33 3l-51 14a1245 1245 0 00-115 42c-3 1-8 4-12 4-4-1-7-7-10-10l-23-27c-23-23-51-41-83-49-48-10-98 0-146 9l-47 10c-5 1-13 5-18 3-8-3-15-13-21-19l-46-45C788 122 732 69 665 32a197 197 0 00-183-12c-6 3-15 8-22 9l-10-3a264 264 0 00-85-8c-84 6-165 44-236 87a1425 1425 0 00-118 80c-3 2-8 4-9 8-2 3-1 7-1 10v336z" fill="#f0f0f0"/><path d="M2 516c21-5 42-14 63-21l127-42c114-38 228-74 343-109l153-45 40-12c6-1 13-5 19-5 4 0 7 5 9 8l18 24c23 33 47 67 72 99l20 26c2 3 5 9 10 8 5 0 10-3 15-5l30-11 85-34 31-12c4-2 10-5 14-5s6 4 9 6l19 17c21 20 43 38 66 56l17 13c2 1 5 4 8 4s5-2 7-3l15-10 55-37 37-25c3-2 11-6 12-10s-4-8-6-11l-21-30-24-34c-2-3-5-10-9-12-3-1-7 2-10 3l-23 9c-29 13-59 24-88 36l-43 18c-5 2-12 7-18 7-4-1-7-5-10-7l-98-96-25-25c-3-3-7-8-12-9l-13 2-24 7-82 21-28 8c-4 1-9 3-13 1-6-4-11-14-16-20l-39-49c-46-56-99-110-162-148l-46-23c-7-3-16-8-24-8-5 0-10 4-14 6a840 840 0 00-123 84c-86 70-164 149-238 231l-58 65-18 21c-3 3-7 7-8 11-3 6-1 15-1 21v46m1296-125a223 223 0 0096 78c47 20 101 22 151 15l32-4c6-1 14-1 20-3 12-4 23-13 34-19 21-13 43-25 63-40l28-19c3-2 7-7 11-7s8 5 11 7l25 20v-55c-9 5-17 12-25 18-3 2-7 7-11 7-5-1-12-8-16-11l-39-29c-35-25-71-48-109-69l-33-16c-7-3-15-8-22-9-6-1-12 4-17 7-14 7-27 16-40 24l-98 64c-20 13-42 26-61 41z" fill="#e0e0e0"/><path d="M2 539a14984 14984 0 00515-11c28-1 57-1 85-4 62-8 123-25 182-45 21-6 41-14 62-21 7-2 17-8 25-8 5 0 9 7 11 10l25 29c25 27 57 58 94 66 20 5 38-3 56-11 25-12 49-26 72-41l27-17c4-2 9-7 13-7 5 0 10 5 13 7l30 20c31 19 64 34 100 42 20 4 39 3 59 2 55-2 110-19 161-41 21-9 41-21 62-30-4-2-8 0-12 1l-24 3c-26 3-51 5-77 4-48-1-96-16-134-46-19-15-33-33-49-50-11 6-21 14-32 21l-62 42-24 16c-3 2-7 6-11 5-3 0-6-3-8-5l-18-14c-21-16-42-34-62-52l-20-18c-3-3-6-7-11-7-5 1-10 4-14 6l-30 12-86 34-34 12c-4 2-9 5-13 3l-8-9-18-24c-24-30-45-61-68-92l-20-28c-3-3-6-10-10-11l-11 2-22 7-82 23-291 90c-87 27-174 57-261 85l-59 20c-5 2-17 3-20 8l-1 7v15m1598-64c4 1 10-1 14-2 12-2 23-4 35-8 24-6 49-12 73-20 16-5 31-11 47-15 0-3 1-8-1-11l-8-8-15-12c-4-2-9-9-14-7s-10 7-14 10l-29 20c-29 19-58 36-88 53z" fill="#d2d2d2"/><path d="M2 539v185h1767V430c-10 1-20 6-29 9l-49 15c-23 7-47 13-70 18-8 2-16 2-24 5s-15 8-23 12l-51 23c-52 22-105 35-161 39-46 3-92-13-132-35l-43-27c-5-3-12-11-18-11-5 1-9 5-13 8l-27 17c-24 15-48 29-73 41-13 6-29 13-44 13-11 0-21-5-31-9-29-13-52-37-74-60l-25-29c-2-4-6-10-11-10-8 1-18 7-26 9-21 7-41 15-62 21-59 20-120 37-182 45-28 3-57 3-85 4l-148 5c-122 3-244 6-366 6z" fill="#c5c5c5"/><path d="M1 539v186c2-5 1-11 1-16V553c0-5 1-10-1-14z" fill="#dcdcdc"/><path d="M2 724c4 2 10 1 15 1h1752c-4-2-10-1-15-1H2z" fill="#ccc"/></svg>