
<svg xmlns="http://www.w3.org/2000/svg" xmlns:xlink="http://www.w3.org/1999/xlink"><defs><style>use:not(:target){display:none}</style><symbol id="b" viewBox="0 0 48 23"><g fill="#333"><path d="M42.9 0a5.1 5.1 0 00-4.3 8l-5.5 5.5a5 5 0 00-5.6 0L21.9 8a5.2 5.2 0 00-4.2-8 5.1 5.1 0 00-4.3 8l-5.5 5.5a5 5 0 00-2.8-.8A5.1 5.1 0 000 17.8C0 20.7 2.3 23 5.1 23a5.1 5.1 0 004.3-8l5.5-5.5a5 5 0 005.5 0L26 15a5.2 5.2 0 004.3 7.9 5.1 5.1 0 004.3-8l5.5-5.5a5 5 0 002.8.8 5.15 5.15 0 000-10.3zM5.1 20.9a3 3 0 01-3-3 3 3 0 013-3 3 3 0 013 3 3 3 0 01-3 3zM17.7 8.2a3 3 0 01-3-3 3 3 0 013-3 3 3 0 013 3 3 3 0 01-3 3zm12.6 12.7a3 3 0 01-3-3 3 3 0 013-3 3 3 0 013 3 3 3 0 01-3 3zM43 8.2a3 3 0 01-3-3 3 3 0 013-3 3 3 0 013 3 3 3 0 01-3 3z"/><path d="M16.7 12.3a1 1 0 00-1.4 0l-2 2a1 1 0 001.4 1.4l2-2c.4-.4.4-1 0-1.4zm19-6a1 1 0 00-1.4 0l-2 2a1 1 0 001.4 1.4l2-2c.4-.4.4-1 0-1.4z"/></g></symbol><symbol id="c" viewBox="0 0 48 45"><g fill="#333"><path d="M47.7 20.4L24.7.2a1 1 0 00-1.4 0L.3 20.4a1 1 0 00-.2 1c.1.5.5.7.9.7h5v21.1c0 .6.4 1 1 1h34c.6 0 1-.4 1-1v-21h5a1 1 0 001-.7 1 1 0 00-.3-1.1zM41 20a1 1 0 00-1 1v21.1H8v-21c0-.6-.4-1-1-1H3.7L24 2.2l20.3 17.8H41z"/><circle cx="28.2" cy="22.6" r="1.9"/><path d="M20.3 23.2c0 .8.2 1.6.4 2.3l-6.3 6.3a1 1 0 00-.3.8v3c0 .6.5 1.1 1 1.1h3.2c.2 0 .5-.1.7-.3l6.3-6.3a7.3 7.3 0 10-5-6.9zm7.3-5.1a5.2 5.2 0 11-2.1 9.9 1 1 0 00-1.2.2l-6.5 6.4h-1.6V33l6.5-6.5c.3-.3.3-.7.2-1.1a5.1 5.1 0 014.7-7.3z"/></g></symbol><symbol id="d" viewBox="0 0 48 29"><g fill="#333"><path d="M24 0C11.7 0 0 5.5 0 11c0 10.8 4 17 24 17s24-6.2 24-17C48 5.5 36.3 0 24 0zm0 2c12.8 0 22 5.4 22 9 0 3.4-8.8 7-22 7S2 14.5 2 11c0-3.6 9.2-9 22-9zm0 24C8.3 26 3.4 22.3 2.3 15.2c4 3.3 12.9 5 21.7 5 8.8 0 17.7-1.7 21.7-5-1.1 7.1-6 11-21.7 11z"/><circle cx="18" cy="5.1" r="1"/><circle cx="22" cy="5.1" r="1"/><circle cx="26" cy="5.1" r="1"/><circle cx="30" cy="5.1" r="1"/><path d="M22 23c0 .6.4 1 1 1h2a1 1 0 100-2h-2a1 1 0 00-1 1z"/></g></symbol><symbol id="e" viewBox="0 0 48 46"><g fill="#333"><path d="M42.6 22.42H15.4V10.58a3.6 3.6 0 10-2.14.08v11.76H6.81a5.35 5.35 0 00-5.35 5.34v10.96c0 .6.48 1.07 1.07 1.07H6v4.5c0 .59.48 1.07 1.07 1.07h34.76c.6 0 1.07-.48 1.07-1.07v-4.5h3.97c.59 0 1.07-.48 1.07-1.07V27.76c0-2.95-2.4-5.34-5.35-5.34zM12.73 7.2a1.45 1.45 0 112.9 0 1.45 1.45 0 01-2.9 0zm28.02 36.02H8.13v-3.43h32.63v3.43zm5.04-5.57H3.6v-9.89c0-1.77 1.44-3.2 3.2-3.2h35.8c1.76 0 3.2 1.43 3.2 3.2v9.9z"/><path d="M10.62 28.02c-.59 0-1.07.48-1.07 1.07v4.03a1.07 1.07 0 102.14 0v-4.03c0-.6-.48-1.07-1.07-1.07zM37.03 27.34a3.49 3.49 0 100 6.97 3.52 3.52 0 003.48-3.44v-.04a3.5 3.5 0 00-3.48-3.5zm0 4.84a1.35 1.35 0 111.35-1.37c-.04.77-.63 1.37-1.35 1.37zM16.85 28.02c-.59 0-1.07.48-1.07 1.07v4.03a1.07 1.07 0 002.14 0v-4.03c0-.6-.48-1.07-1.07-1.07zM7.53 11.49a1.07 1.07 0 00.76-1.83 3.86 3.86 0 010-5.44 1.07 1.07 0 10-1.51-1.5 6 6 0 000 8.46c.2.2.47.31.75.31z"/><path d="M3.45 13.76a1.07 1.07 0 00.75-1.83 7.18 7.18 0 010-10.08A1.07 1.07 0 102.69.35a9.32 9.32 0 000 13.1c.2.2.48.3.77.3z"/></g></symbol><symbol id="f" viewBox="0 0 48 48"><g fill="#333"><path d="M25.1 17a3 3 0 00-3-3 3 3 0 00-3.1 3v12.3a4 4 0 00-1 2.6 4 4 0 004 4 4 4 0 004.1-4 4 4 0 00-1-2.6V17zm-3 17a2 2 0 01-2.1-2c0-.6.2-1.1.7-1.5.2-.2.3-.5.3-.8V17c0-.5.5-1 1-1 .6 0 1 .5 1 1v12.7c0 .3.2.6.4.8.4.4.7.9.7 1.4 0 1.1-1 2-2 2z"/><path d="M44 26h-4v-4h3a1 1 0 00.7-1.7l-21-20a1 1 0 00-1.4 0l-21 20A1 1 0 001 22h3v19c0 .6.4 1 1 1h27.3A8 8 0 0048 40V30a4 4 0 00-4-4zm-12 4v10H6V21c0-.6-.4-1-1-1H3.5L22 2.4 40.5 20H39a1 1 0 00-1 1v5h-2a4 4 0 00-4 4zm14 10a6 6 0 01-12 0V30c0-1.1.9-2 2-2h8a2 2 0 012 2v10z"/><path d="M41.8 32h-1v-1a1 1 0 10-2 0v1h-1a1 1 0 100 2h1v1a1 1 0 102 0v-1h1a1 1 0 100-2zm0 7.8h-4a1 1 0 100 2h4a1 1 0 100-2z"/></g></symbol><symbol id="g" viewBox="0 0 48 41"><g fill="#fff"><path d="M36 13c0-.5-.4-1-1-1H5a1 1 0 00-1 1v4c0 .6.4 1 1 1h30c.6 0 1-.4 1-1v-4zm-2 3H6v-2h28v2zM5 8h22a1 1 0 100-2H5a1 1 0 100 2z"/><circle cx="34" cy="6.1" r="2"/><path d="M28 25a1 1 0 10-2 0c0 1.9.6 2.8 1.2 3.6.4.7.8 1.3.8 2.5a1 1 0 102 0c0-1.8-.6-2.8-1.2-3.6-.4-.7-.8-1.2-.8-2.4zM11 24a1 1 0 00-1 1c0 1.3-.4 1.8-.8 2.5-.6.8-1.2 1.8-1.2 3.6a1 1 0 102 0c0-1.2.4-1.8.8-2.5.6-.8 1.2-1.7 1.2-3.5 0-.6-.4-1-1-1zM19 24a1 1 0 00-1 1v6a1 1 0 102 0v-6c0-.5-.4-1-1-1zM42 24h-1v-1a1 1 0 10-2 0v1h-1a1 1 0 100 2h1v1a1 1 0 102 0v-1h1a1 1 0 100-2zM42 32h-4a1 1 0 100 2h4a1 1 0 100-2z"/><path d="M44 18h-4V4a4 4 0 00-4-4H4a4 4 0 00-4 4v14a4 4 0 004 4h28v10a8 8 0 0016 0V22a4 4 0 00-4-4zm-11.4 2H4a2 2 0 01-2-2V4c0-1 .9-2 2-2h32a2 2 0 012 2v14h-2a4 4 0 00-3.4 2zM46 32a6 6 0 01-12 0V22c0-1 .9-2 2-2h8a2 2 0 012 2v10z"/></g></symbol><symbol id="h" viewBox="0 0 40 48"><path fill="#333" d="M12.3 28.4c.7-1 1-2 1-3v-21c.9 1 2 2.1 3.2 2.7 2.2 1 2.3 2.6 2.2 4.3v.3a1.1 1.1 0 002.2 0v-.2c0-1.4.2-4.6-3.4-6.4-1.8-.8-3.8-3.5-4.4-4.5H13l-.3-.3-.4-.1h-.6l-.1.1h-.1v.1l-.3.3-.1.4v20.3c-1-.7-2.3-1-3.7-1-.8 0-1.6 0-2.4.3C1.5 21.8-.6 25.1.3 28c.8 2.2 3 3.7 5.7 3.7a7.8 7.8 0 006.3-3.3zm-1.8-1.2c-.6 1-1.6 1.6-2.8 2a5 5 0 01-1.7.3c-1.8 0-3.1-.9-3.5-2.1-.6-1.8.8-3.8 3.2-4.6.5-.2 1.1-.3 1.7-.3 1.7 0 3.1.9 3.5 2.2a3 3 0 01-.4 2.5zm29.2 7.3V10.4l-.1-.2V10h-.2l-.1-.1h-.1v-.1H38.9v-.1h-.7l-15.7 7h-.2v.1l-.1.1H22v.1a1.2 1.2 0 00-.1.1l-.1.1a.8.8 0 000 .1v.1l-.1.1v20.3c-1-.7-2.3-1-3.7-1a7.8 7.8 0 00-6.3 3.2c-1 1.4-1.2 3-.7 4.4.7 2.2 3 3.7 5.6 3.7a7.8 7.8 0 006.4-3.3c.7-1 1-2.2.9-3.3V22.6l13.5-6v14.2a6 6 0 00-3.6-1c-.8 0-1.6 0-2.4.3-3.5 1.2-5.6 4.4-4.7 7.4.8 2.2 3 3.6 5.7 3.6a7.8 7.8 0 006.3-3.3c.7-1 1-2.2 1-3.3zm-21.2 11l-1.8.3c-1.7 0-3-.9-3.5-2.1a3 3 0 01.5-2.6 5 5 0 012.7-2l1.7-.3c1.8 0 3.2.9 3.6 2.2v.9a3 3 0 01-.5 1.6 5 5 0 01-2.7 2zM24 20.2v-1.7l13.5-6v1.7l-13.5 6zm10.2 18.4a5 5 0 01-1.7.3c-1.7 0-3.1-.8-3.5-2.1-.6-1.8.8-3.8 3.2-4.6l1.7-.2c1.7 0 3.1.8 3.5 2l.1.6v.4c0 .5-.2 1-.5 1.6-.6 1-1.6 1.6-2.8 2z"/></symbol><symbol id="i" viewBox="0 0 53 52"><rect fill-opacity=".4" fill="#d8d8d8" width="53" height="52" rx="26"/><path d="M11.7 24l10-9a2 2 0 013.3 1.5v18a2 2 0 01-3.3 1.5l-10-9a2 2 0 010-3z" fill="#8c8b8b"/><path d="M24.7 24l10-9a2 2 0 013.3 1.5v18a2 2 0 01-3.3 1.5l-10-9a2 2 0 010-3z" fill="#8c8b8b"/></symbol><symbol id="j" viewBox="0 0 39 48"><g fill="#333"><path d="M29.6 5.6H28a.8.8 0 100 1.6h1.6a.8.8 0 100-1.6zm-23.2 12H4v11.2h9.6V17.6H6.4zm3.2 1.6v2.4H8v-2.4h1.6zm2.4 0v8H5.6v-8h.8v4h4.8v-4h.8zm4-3.2c-.4 0-.8.4-.8.8v12.8a.8.8 0 101.6 0V16.8c0-.4-.4-.8-.8-.8zm6.4 0c-.4 0-.8.4-.8.8v12.8a.8.8 0 101.6 0V16.8c0-.4-.4-.8-.8-.8zM12 36c0 .4.4.8.8.8h12.8a.8.8 0 100-1.6H12.8c-.4 0-.8.4-.8.8z"/><path d="M36.7 0h-35C.7 0 0 .8 0 1.7v43.9C0 47 1 48 2.3 48h33.8c1.2 0 2.3-1 2.3-2.3v-44c0-1-.8-1.7-1.7-1.7zM1.6 1.7l.1-.1h16.7V32H1.6V1.7zm35.2 44c0 .4-.3.7-.7.7H2.3a.7.7 0 01-.7-.7V33.6h35.2v12zM20 32V1.6h16.7l.1.1V32H20z"/></g></symbol><symbol id="k" viewBox="0 0 48 25"><g fill="#333"><path d="M42.7 0H10.2C7.3 0 5 2.4 5 5.3V6H3.2A3.2 3.2 0 000 9.3v5.5C0 16.6 1.4 18 3.2 18h1.7v.8c0 3 2.4 5.3 5.3 5.3h32.5c3 0 5.3-2.4 5.3-5.3V5.3c0-3-2.4-5.3-5.3-5.3zM3.2 15.9a1 1 0 01-1-1V9.2c0-.6.4-1 1-1h1.7v7.6H3.2zm42.7 3c0 1.7-1.4 3.1-3.2 3.1H10.2A3.2 3.2 0 017 18.8V5.3C7 3.5 8.5 2 10.2 2h32.5c1.8 0 3.2 1.4 3.2 3.2v13.5z"/><path d="M19.6 11h-1.8V9.2a1 1 0 10-2.1 0V11h-1.9a1 1 0 100 2.1h1.9V15a1 1 0 102 0v-1.8h2a1 1 0 100-2.1zM38.6 8.1a1 1 0 00-1 1V15a1 1 0 102 0V9.2c0-.6-.5-1.1-1-1.1z"/></g></symbol><symbol id="l" viewBox="0 0 48 36"><g fill="#fff"><path d="M24 26a6 6 0 100-12 6 6 0 000 12zm0-10a4 4 0 110 8 4 4 0 010-8z"/><path d="M23 21c.6 0 1-.4 1-1a1 1 0 100-2 2 2 0 00-2 2c0 .6.4 1 1 1z"/><path d="M47 0H1a1 1 0 00-1 1v7a4 4 0 004 4v4a20 20 0 0040 0v-4a4 4 0 004-4V1c0-.6-.4-1-1-1zm-5 16a18 18 0 01-36 0v-4h12a10 10 0 006 18 10 10 0 006-18h12v4zm-18-4a8 8 0 110 16 8 8 0 010-16zm22-4a2 2 0 01-2 2H4a2 2 0 01-2-2V2h44v6z"/><circle cx="37" cy="15" r="1"/></g></symbol><symbol id="m" viewBox="0 0 41 48"><path fill="#333" d="M10.9 5c.8-1 1.1-2.5.8-3.7a1 1 0 012-.6c.5 1.9 0 4.1-1.2 5.6-1 1.4-1.4 3.8-.1 5a1 1 0 01-1.4 1.5c-2.2-2-1.8-5.6-.1-7.8zm6.7 1.2h6.8a1 1 0 000-2h-6.8a1 1 0 000 2zM40.5 16v8.2c0 4.1-3.1 7.5-7 8v9.2h1c.5 0 1 .4 1 1v4.5c0 .6-.5 1-1 1H1a1 1 0 01-1-1v-4.5c0-.6.4-1 1-1h.8c-.4-8.9.5-18.8 4-22L.3 11.5A1 1 0 010 11V9a1 1 0 011-1h4.2c.2-1.1.7-2.1 1.3-3 .8-1 1.1-2.5.8-3.7a1 1 0 012-.6c.5 1.9 0 4.1-1.2 5.6a4.6 4.6 0 00-1 2.8c0 .9.3 1.6.9 2.2a1 1 0 01-1.4 1.5A4.7 4.7 0 015.3 10H2.1v.6l6 8.3a1 1 0 01.2.4v.5a1 1 0 01-.5.6c-1.3.7-2.4 3.2-3 6.8A62 62 0 004 41.4h27.4V31.3c0-.6.4-1 1-1a6 6 0 006-6V16a6 6 0 00-6-6h-7v22.2a3.2 3.2 0 01-6.5 0V13a1 1 0 012 0v19a1.2 1.2 0 002.4 0v-22h-8.8V8h18a8 8 0 018 8zm-7 27.4H2V46h31.3v-2.5zm-1-17c.5 0 1-.5 1-1V14.8a1 1 0 00-2.1 0v10.4c0 .6.4 1 1 1z"/></symbol><symbol id="n" viewBox="0 0 512 512"><path d="M449.7 239.8a13.7 13.7 0 00-27.3 2 198 198 0 01-197.3 212c-109 0-197.7-88.7-197.7-197.8A198 198 0 01343.8 97.7 13.7 13.7 0 00360.2 76 225.4 225.4 0 000 256c0 124.1 101 225.1 225.1 225.1a225.4 225.4 0 00224.6-241.3z"/><path d="M496.4 61.8a53.4 53.4 0 00-75.5 0l-197 197-70-69.8a53.4 53.4 0 00-75.4 75.5l120.3 120.3a35.3 35.3 0 0050 0l247.6-247.6a53.4 53.4 0 000-75.4zM477 117.9L229.5 365.5a8 8 0 01-11.3 0L97.8 245a26 26 0 0136.8-36.7l71.9 71.8a24.4 24.4 0 0034.7 0l199-199a26 26 0 0136.8 36.7z"/></symbol></defs><use id="bb" xlink:href="#b"/><use id="bc" xlink:href="#c"/><use id="bd" xlink:href="#d"/><use id="be" xlink:href="#e"/><use id="bf" xlink:href="#f"/><use id="bg" xlink:href="#g"/><use id="bh" xlink:href="#h"/><use id="bi" xlink:href="#i"/><use id="bj" xlink:href="#j"/><use id="bk" xlink:href="#k"/><use id="bl" xlink:href="#l"/><use id="bm" xlink:href="#m"/><use id="bn" xlink:href="#n"/></svg>