<svg xmlns="http://www.w3.org/2000/svg" viewBox="0 0 48 41"><g fill="none" fill-rule="evenodd"><path fill="#333" d="M-71-251h748V959H-71z"/><g transform="translate(-2 -6)"><circle fill="none" cx="26" cy="26" r="26"/><g transform="translate(2 6)" fill="#FFF" fill-rule="nonzero"><path d="M36 13c0-.5-.4-1-1-1H5a1 1 0 00-1 1v4c0 .6.4 1 1 1h30c.6 0 1-.4 1-1v-4zm-2 3H6v-2h28v2zM5 8h22a1 1 0 100-2H5a1 1 0 100 2z"/><circle cx="34" cy="6.1" r="2"/><path d="M28 25a1 1 0 10-2 0c0 1.9.6 2.8 1.2 3.6.4.7.8 1.3.8 2.5a1 1 0 102 0c0-1.8-.6-2.8-1.2-3.6-.4-.7-.8-1.2-.8-2.4zM11 24a1 1 0 00-1 1c0 1.3-.4 1.8-.8 2.5-.6.8-1.2 1.8-1.2 3.6a1 1 0 102 0c0-1.2.4-1.8.8-2.5.6-.8 1.2-1.7 1.2-3.5 0-.6-.4-1-1-1zM19 24a1 1 0 00-1 1v6a1 1 0 102 0v-6c0-.5-.4-1-1-1zM42 24h-1v-1a1 1 0 10-2 0v1h-1a1 1 0 100 2h1v1a1 1 0 102 0v-1h1a1 1 0 100-2zM42 32h-4a1 1 0 100 2h4a1 1 0 100-2z"/><path d="M44 18h-4V4a4 4 0 00-4-4H4a4 4 0 00-4 4v14a4 4 0 004 4h28v10a8 8 0 0016 0V22a4 4 0 00-4-4zm-11.4 2H4a2 2 0 01-2-2V4c0-1 .9-2 2-2h32a2 2 0 012 2v14h-2a4 4 0 00-3.4 2zM46 32a6 6 0 01-12 0V22c0-1 .9-2 2-2h8a2 2 0 012 2v10z"/></g></g></g></svg>