<svg xmlns="http://www.w3.org/2000/svg" viewBox="0 0 48 25"><g fill="none" fill-rule="evenodd"><circle cx="26" cy="26" r="26" fill="none" fill-opacity="0" transform="translate(-2 -14)"/><g fill="#333" fill-rule="nonzero"><path d="M42.7 0H10.2C7.3 0 5 2.4 5 5.3V6H3.2A3.2 3.2 0 000 9.3v5.5C0 16.6 1.4 18 3.2 18h1.7v.8c0 3 2.4 5.3 5.3 5.3h32.5c3 0 5.3-2.4 5.3-5.3V5.3c0-3-2.4-5.3-5.3-5.3zM3.2 15.9a1 1 0 01-1-1V9.2c0-.6.4-1 1-1h1.7v7.6H3.2zm42.7 3c0 1.7-1.4 3.1-3.2 3.1H10.2A3.2 3.2 0 017 18.8V5.3C7 3.5 8.5 2 10.2 2h32.5c1.8 0 3.2 1.4 3.2 3.2v13.5z"/><path d="M19.6 11h-1.8V9.2a1 1 0 10-2.1 0V11h-1.9a1 1 0 100 2.1h1.9V15a1 1 0 102 0v-1.8h2a1 1 0 100-2.1zM38.6 8.1a1 1 0 00-1 1V15a1 1 0 102 0V9.2c0-.6-.5-1.1-1-1.1z"/></g></g></svg>