<svg xmlns="http://www.w3.org/2000/svg" viewBox="0 0 48 36"><g fill="none" fill-rule="evenodd"><path fill="#333" d="M-171-253h748V957h-748z"/><g transform="translate(-2 -8)"><circle fill="none" cx="26" cy="26" r="26"/><g transform="translate(2 8)" fill="#FFF" fill-rule="nonzero"><path d="M24 26a6 6 0 100-12 6 6 0 000 12zm0-10a4 4 0 110 8 4 4 0 010-8z"/><path d="M23 21c.6 0 1-.4 1-1a1 1 0 100-2 2 2 0 00-2 2c0 .6.4 1 1 1z"/><path d="M47 0H1a1 1 0 00-1 1v7a4 4 0 004 4v4a20 20 0 0040 0v-4a4 4 0 004-4V1c0-.6-.4-1-1-1zm-5 16a18 18 0 01-36 0v-4h12a10 10 0 006 18 10 10 0 006-18h12v4zm-18-4a8 8 0 110 16 8 8 0 010-16zm22-4a2 2 0 01-2 2H4a2 2 0 01-2-2V2h44v6z"/><circle cx="37" cy="15" r="1"/></g></g></g></svg>