<svg xmlns="http://www.w3.org/2000/svg" viewBox="0 0 512 512"><path d="M449.7 239.8a13.7 13.7 0 00-27.3 2 198 198 0 01-197.3 212c-109 0-197.7-88.7-197.7-197.8A198 198 0 01343.8 97.7 13.7 13.7 0 00360.2 76 225.4 225.4 0 000 256c0 124.1 101 225.1 225.1 225.1a225.4 225.4 0 00224.6-241.3z"/><path d="M496.4 61.8a53.4 53.4 0 00-75.5 0l-197 197-70-69.8a53.4 53.4 0 00-75.4 75.5l120.3 120.3a35.3 35.3 0 0050 0l247.6-247.6a53.4 53.4 0 000-75.4zM477 117.9L229.5 365.5a8 8 0 01-11.3 0L97.8 245a26 26 0 0136.8-36.7l71.9 71.8a24.4 24.4 0 0034.7 0l199-199a26 26 0 0136.8 36.7z"/></svg>