<svg xmlns="http://www.w3.org/2000/svg" viewBox="0 0 39 48"><g transform="translate(-7 -2)" fill="none" fill-rule="evenodd"><circle fill="none" cx="26" cy="26" r="26"/><g fill="#333" fill-rule="nonzero"><path d="M36.6 7.6H35a.8.8 0 100 1.6h1.6a.8.8 0 100-1.6zM13.4 19.6H11v11.2h9.6V19.6H13.4zm3.2 1.6v2.4H15v-2.4h1.6zm2.4 0v8h-6.4v-8h.8v4h4.8v-4h.8zM23 18c-.4 0-.8.4-.8.8v12.8a.8.8 0 101.6 0V18.8c0-.4-.4-.8-.8-.8zM29.4 18c-.4 0-.8.4-.8.8v12.8a.8.8 0 101.6 0V18.8c0-.4-.4-.8-.8-.8zM19 38c0 .4.4.8.8.8h12.8a.8.8 0 100-1.6H19.8c-.4 0-.8.4-.8.8z"/><path d="M43.7 2h-35C7.7 2 7 2.8 7 3.7V47.6C7 49 8 50 9.3 50h33.8c1.2 0 2.3-1 2.3-2.3v-44c0-1-.8-1.7-1.7-1.7zM8.6 3.7l.1-.1h16.7V34H8.6V3.7zm35.2 44c0 .4-.3.7-.7.7H9.3a.7.7 0 01-.7-.7V35.6h35.2v12zM27 34V3.6h16.7l.1.1V34H27z"/></g></g></svg>