<svg xmlns="http://www.w3.org/2000/svg" viewBox="0 0 41 48"><g fill="none" fill-rule="evenodd"><circle cx="26" cy="26" r="26" fill="none" fill-opacity="0" transform="translate(-6 -2)"/><path d="M10.9 5c.8-1 1.1-2.5.8-3.7a1 1 0 012-.6c.5 1.9 0 4.1-1.2 5.6-1 1.4-1.4 3.8-.1 5a1 1 0 01-1.4 1.5c-2.2-2-1.8-5.6-.1-7.8zm6.7 1.2h6.8a1 1 0 000-2h-6.8a1 1 0 000 2zM40.5 16v8.2c0 4.1-3.1 7.5-7 8v9.2h1c.5 0 1 .4 1 1v4.5c0 .6-.5 1-1 1H1a1 1 0 01-1-1v-4.5c0-.6.4-1 1-1h.8c-.4-8.9.5-18.8 4-22L.3 11.5A1 1 0 010 11V9a1 1 0 011-1h4.2c.2-1.1.7-2.1 1.3-3 .8-1 1.1-2.5.8-3.7a1 1 0 012-.6c.5 1.9 0 4.1-1.2 5.6a4.6 4.6 0 00-1 2.8c0 .9.3 1.6.9 2.2a1 1 0 01-1.4 1.5A4.7 4.7 0 015.3 10H2.1v.6l6 8.3a1 1 0 01.2.4v.5a1 1 0 01-.5.6c-1.3.7-2.4 3.2-3 6.8A62 62 0 004 41.4h27.4V31.3c0-.6.4-1 1-1a6 6 0 006-6V16a6 6 0 00-6-6h-7v22.2a3.2 3.2 0 01-6.5 0V13a1 1 0 012 0v19a1.2 1.2 0 002.4 0v-22h-8.8V8h18a8 8 0 018 8zm-7 27.4H2V46h31.3v-2.5zm-1-17c.5 0 1-.5 1-1V14.8a1 1 0 00-2.1 0v10.4c0 .6.4 1 1 1z" fill="#333" fill-rule="nonzero"/></g></svg>