<svg xmlns="http://www.w3.org/2000/svg" viewBox="0 0 48 29"><g transform="translate(-2 -12)" fill="none" fill-rule="evenodd"><circle fill="none" cx="26" cy="26" r="26"/><g transform="translate(2 12)" fill="#333" fill-rule="nonzero"><path d="M24 0C12 0 0 5 0 11c0 11 4 17 24 17s24-6 24-17C48 5 36 0 24 0zm0 2c13 0 22 5 22 9 0 3-9 7-22 7S2 14 2 11c0-4 9-9 22-9zm0 24C8 26 3 22 2 15c4 3 13 5 22 5s18-2 22-5c-1 7-6 11-22 11z"/><circle cx="18" cy="5.1" r="1"/><circle cx="22" cy="5.1" r="1"/><circle cx="26" cy="5.1" r="1"/><circle cx="30" cy="5.1" r="1"/><path d="M22 23l1 1h2a1 1 0 100-2h-2l-1 1z"/></g></g></svg>