<svg xmlns="http://www.w3.org/2000/svg" viewBox="0 0 48 46"><g fill="none" fill-rule="evenodd"><circle cx="26" cy="26" r="26" fill="none" fill-opacity="0" transform="translate(-2 -3)"/><g fill="#333" fill-rule="nonzero"><path d="M42.6 22.4H15.4V10.6a3.6 3.6 0 10-2.1 0v11.8H6.8c-3 0-5.3 2.4-5.3 5.4v11c0 .5.4 1 1 1H6v4.5c0 .6.5 1 1 1h34.8c.6 0 1.1-.4 1.1-1v-4.5h4c.6 0 1-.5 1-1v-11c0-3-2.4-5.4-5.3-5.4zM12.7 7.2a1.5 1.5 0 113 0 1.5 1.5 0 01-3 0zm28 36H8.2v-3.4h32.7v3.4zm5.1-5.5H3.6v-10c0-1.7 1.4-3.1 3.2-3.1h35.8c1.8 0 3.2 1.4 3.2 3.2v9.9z"/><path d="M10.6 28a1 1 0 00-1 1v4.1a1 1 0 102 0v-4c0-.6-.4-1-1-1zM37 27.3a3.5 3.5 0 100 7c2 0 3.4-1.5 3.5-3.4 0-2-1.5-3.6-3.5-3.6zm0 4.9a1.3 1.3 0 111.4-1.4c0 .8-.7 1.4-1.4 1.4zM16.9 28a1 1 0 00-1.1 1v4.1a1 1 0 002.1 0v-4c0-.6-.5-1-1-1zM7.5 11.5a1 1 0 00.8-1.8 3.9 3.9 0 010-5.5 1 1 0 10-1.5-1.5 6 6 0 000 8.5c.2.2.4.3.7.3z"/><path d="M3.4 13.8a1 1 0 00.8-1.9 7.2 7.2 0 010-10A1 1 0 102.7.2a9.3 9.3 0 000 13.1l.7.4z"/></g></g></svg>