<svg xmlns="http://www.w3.org/2000/svg" viewBox="0 0 48 23"><g transform="translate(-2 -16)" fill="none" fill-rule="evenodd"><circle fill="none" cx="26" cy="26" r="26"/><g fill="#333" fill-rule="nonzero"><path d="M44.903385 16.0000948c-2.8102446 0-5.0965213 2.31165924-5.0965213 5.15310335 0 1.03634603.3051556 2.0014095.8279046 2.810258l-5.506208 5.56733845c-.8000609-.5285526-1.7545278-.8370961-2.7794946-.8370961-1.0620917 0-2.0491835.3306297-2.8664944.8949184l-5.5629266-5.62553991c.5226552-.8088485.8276234-1.77381718.8276234-2.80997363C24.7472681 18.31165925 22.4609913 16 19.6507468 16s-5.0965213 2.31165925-5.0965213 5.15310336c0 1.03615645.3050619 2.00084075.8275296 2.80968925L9.87535962 29.5304154c-.79987344-.528363-1.75415283-.8367169-2.77883832-.8367169C4.28627678 28.6936985 2 31.0054525 2 33.8468966 2 36.6883408 4.28627678 39 7.0965213 39c2.81024451 0 5.0965213-2.3116592 5.0965213-5.1531034 0-1.036346-.30515566-2.0014095-.82790464-2.8103527l5.50620804-5.56733849c.8000609.52855259 1.7545278.83709609 2.7794945.83709609 1.024873 0 1.9793399-.3085435 2.7793071-.83709609l5.5936766 5.65653639c-.4880616.7903644-.771186 1.7227251-.771186 2.72106 0 2.8414442 2.2862768 5.1531034 5.0965213 5.1531034s5.0965213-2.3116592 5.0965213-5.1531034c0-1.0361564-.3050619-2.0009355-.8275297-2.8096892l5.5064893-5.56762282c.7999672.52836301 1.7542466.83671692 2.7788383.83671692C47.7137232 26.3062067 50 23.99454748 50 21.15310336c0-2.8415389-2.2863705-5.15300857-5.096615-5.15300857zM7.0965213 36.8699596c-1.64868428 0-2.98996291-1.3561696-2.98996291-3.023063 0-1.6669881 1.34127863-3.0231577 2.98996291-3.0231577 1.64859053 0 2.98996291 1.3561696 2.98996291 3.0231577 0 1.6668934-1.34127863 3.023063-2.98996291 3.023063zm12.5543192-12.69369847c-1.6485905 0-2.9899629-1.35616964-2.9899629-3.02315777 0-1.66689334 1.3412786-3.02315776 2.9899629-3.02315776s2.9899629 1.35616963 2.9899629 3.02315776c0 1.66698813-1.3412786 3.02315777-2.9899629 3.02315777zM32.3490657 36.8699596c-1.6485905 0-2.9899629-1.3561696-2.9899629-3.0231578 0-1.6669881 1.3412786-3.0231577 2.9899629-3.0231577 1.6485906 0 2.9899629 1.3561696 2.9899629 3.0231577-.0000937 1.6669882-1.3413723 3.0231578-2.9899629 3.0231578zM44.903385 24.17626113c-1.6485906 0-2.989963-1.35616964-2.989963-3.02315777 0-1.66689334 1.3412787-3.02315776 2.989963-3.02315776 1.6485905 0 2.9899629 1.35616963 2.9899629 3.02315776 0 1.66698813-1.3413724 3.02315777-2.9899629 3.02315777z"/><path d="M18.7094973 28.2903744c-.3872488-.3871659-1.0149835-.3871659-1.4022322 0l-2.0169058 2.0169335c-.3871604.3871658-.3871604 1.0149975.0000883 1.4022516.1936243.193627.4473481.2904405.701072.2904405.2537238 0 .5075358-.0969018.7010719-.2904405l2.0169058-2.0169336c.3873369-.3871658.3873369-1.0150857 0-1.4022515zM37.7096375 22.29036413c-.387253-.38716688-1.0149065-.38716688-1.402336.00008825l-2.0169279 2.0169391c-.3871648.38716688-.3871648 1.01500029 0 1.40225542.1937147.19353932.4474413.2903531.7011679.2903531.2538149 0 .5074532-.09690204.7010797-.29044135l2.016928-2.0169391c.387253-.38725513.387253-1.01508854.0000883-1.40225542z"/></g></g></svg>