<?xml version="1.0" encoding="UTF-8"?><svg width="48" height="23" viewBox="0 0 48 23" xmlns="http://www.w3.org/2000/svg"><g id="Events" stroke="none" stroke-width="1" fill="none" fill-rule="evenodd"><g id="Assets" transform="translate(-146 -339)"><g id="stats" transform="translate(144 323)"><circle id="Oval" fill-opacity="0" fill="#D8D8D8" cx="26" cy="26" r="26"/><g id="line-chart" transform="translate(2 16)" fill="#333" fill-rule="nonzero"><path d="M42.90339.0001c-2.81025 0-5.09653 2.31165-5.09653 5.1531 0 1.03634.30516 2.0014.8279 2.81026l-5.5062 5.56733c-.80006-.52855-1.75453-.8371-2.7795-.8371-1.06209 0-2.04918.33064-2.86649.89493l-5.56293-5.62554c.52266-.80885.82763-1.77382.82763-2.80998C22.74727 2.31166 20.46099 0 17.65075 0c-2.81025 0-5.09652 2.31166-5.09652 5.1531 0 1.03616.30506 2.00084.82753 2.8097l-5.5064 5.56762c-.79987-.52837-1.75415-.83672-2.77884-.83672C2.28628 12.6937 0 15.00545 0 17.8469 0 20.68834 2.28628 23 5.09652 23c2.81025 0 5.09652-2.31166 5.09652-5.1531 0-1.03635-.30515-2.00141-.8279-2.81036l5.5062-5.56733c.80007.52855 1.75453.8371 2.7795.8371 1.02487 0 1.97934-.30855 2.7793-.8371l5.59368 5.65653c-.48806.79037-.77118 1.72273-.77118 2.72106 0 2.84145 2.28627 5.1531 5.09652 5.1531 2.81024 0 5.09652-2.31165 5.09652-5.1531 0-1.03615-.30506-2.00093-.82753-2.80969l5.50649-5.56762c.79997.52836 1.75425.83672 2.77884.83672C45.71372 10.3062 48 7.99455 48 5.1531 48 2.31155 45.71363.00008 42.90339.00008zM5.09651 20.86995c-1.64868 0-2.98996-1.35617-2.98996-3.02306 0-1.667 1.34128-3.02316 2.98996-3.02316 1.6486 0 2.98996 1.35617 2.98996 3.02316 0 1.66689-1.34127 3.02306-2.98996 3.02306zm12.55432-12.6937c-1.64859 0-2.98996-1.35617-2.98996-3.02316 0-1.66689 1.34128-3.02315 2.98996-3.02315S20.6408 3.48612 20.6408 5.1531c0 1.667-1.34128 3.02316-2.98996 3.02316zm12.69823 12.6937c-1.6486 0-2.98997-1.35617-2.98997-3.02316 0-1.66699 1.34128-3.02316 2.98997-3.02316 1.64859 0 2.98996 1.35617 2.98996 3.02316-.0001 1.66699-1.34137 3.02316-2.98996 3.02316zm12.55431-12.6937c-1.64859 0-2.98996-1.35617-2.98996-3.02316 0-1.66689 1.34128-3.02315 2.98996-3.02315 1.6486 0 2.98997 1.35617 2.98997 3.02315 0 1.667-1.34137 3.02316-2.98996 3.02316z" id="Shape"/><path d="M16.7095 12.29037c-.38725-.38716-1.01499-.38716-1.40223 0l-2.01691 2.01694c-.38716.38716-.38716 1.015.00009 1.40225.19362.19363.44735.29044.70107.29044.25372 0 .50754-.0969.70107-.29044l2.0169-2.01693c.38734-.38717.38734-1.01509 0-1.40226zM35.70964 6.29036c-.38726-.38716-1.0149-.38716-1.40234.0001l-2.01693 2.01693c-.38716.38717-.38716 1.015 0 1.40226.19372.19354.44744.29035.70117.29035.25382 0 .50745-.0969.70108-.29044l2.01693-2.01694c.38725-.38726.38725-1.01509.00009-1.40226z" id="Shape"/></g></g></g></g></svg>