<?xml version="1.0" encoding="UTF-8"?><svg width="48" height="23" viewBox="0 0 48 23" xmlns="http://www.w3.org/2000/svg"><g id="Events" stroke="none" stroke-width="1" fill="none" fill-rule="evenodd"><g id="Assets" transform="translate(-146 -339)"><g id="stats" transform="translate(144 323)"><circle id="Oval" fill-opacity="0" fill="#D8D8D8" cx="26" cy="26" r="26"/><g id="line-chart" transform="translate(2 16)" fill="#333" fill-rule="nonzero"><path d="M42.9 0a5.13 5.13 0 00-4.27 7.96l-5.5 5.57a5.03 5.03 0 00-5.65.06l-5.56-5.63A5.16 5.16 0 0017.65 0a5.13 5.13 0 00-4.27 7.96l-5.5 5.57a5.02 5.02 0 00-2.78-.84A5.13 5.13 0 000 17.85 5.13 5.13 0 005.1 23a5.13 5.13 0 004.27-7.96l5.5-5.57a5.03 5.03 0 005.56 0l5.6 5.66A5.16 5.16 0 0030.34 23a5.13 5.13 0 004.27-7.96l5.5-5.57c.8.53 1.76.84 2.78.84 2.81 0 5.1-2.32 5.1-5.16A5.13 5.13 0 0042.9 0zM5.1 20.87a3.01 3.01 0 01-3-3.02 3.01 3.01 0 013-3.03 3.01 3.01 0 012.99 3.03 3.01 3.01 0 01-3 3.02zm12.55-12.7a3.01 3.01 0 01-2.99-3.02 3.01 3.01 0 013-3.02 3.01 3.01 0 012.98 3.02 3.01 3.01 0 01-2.99 3.03zm12.7 12.7a3.01 3.01 0 01-3-3.02 3.01 3.01 0 013-3.03 3.01 3.01 0 012.99 3.03 3.01 3.01 0 01-3 3.02zM42.9 8.17a3.01 3.01 0 01-2.99-3.02 3.01 3.01 0 013-3.02 3.01 3.01 0 012.98 3.02 3.01 3.01 0 01-2.99 3.03z" id="Shape"/><path d="M16.7 12.29a1 1 0 00-1.4 0l-2.01 2.02a1 1 0 001.4 1.4l2.02-2.02a1 1 0 000-1.4zM35.71 6.29a1 1 0 00-1.4 0l-2.02 2.02a1 1 0 001.4 1.4l2.02-2.02a1 1 0 000-1.4z" id="Shape"/></g></g></g></g></svg>