<?xml version="1.0" encoding="UTF-8"?><svg width="48" height="23" viewBox="0 0 48 23" xmlns="http://www.w3.org/2000/svg"><g id="Events" stroke="none" stroke-width="1" fill="none" fill-rule="evenodd"><g id="Assets" transform="translate(-146 -339)"><g id="stats" transform="translate(144 323)"><circle id="Oval" fill-opacity="0" fill="#D8D8D8" cx="26" cy="26" r="26"/><g id="line-chart" transform="translate(2 16)" fill="#333" fill-rule="nonzero"><path d="M42.9 0a5.1 5.1 0 00-4.3 8l-5.5 5.5a5 5 0 00-5.6 0L21.9 8a5.2 5.2 0 00-4.2-8 5.1 5.1 0 00-4.3 8l-5.5 5.5a5 5 0 00-2.8-.8A5.1 5.1 0 000 17.8C0 20.7 2.3 23 5.1 23a5.1 5.1 0 004.3-8l5.5-5.5a5 5 0 005.5 0L26 15a5.2 5.2 0 004.3 7.9 5.1 5.1 0 004.3-8l5.5-5.5a5 5 0 002.8.8 5.1 5.1 0 000-10.3zM5.1 20.9a3 3 0 01-3-3 3 3 0 013-3 3 3 0 013 3 3 3 0 01-3 3zM17.7 8.2a3 3 0 01-3-3 3 3 0 013-3 3 3 0 013 3 3 3 0 01-3 3zm12.6 12.7a3 3 0 01-3-3 3 3 0 013-3 3 3 0 013 3 3 3 0 01-3 3zM43 8.2a3 3 0 01-3-3 3 3 0 013-3 3 3 0 013 3 3 3 0 01-3 3z" id="Shape"/><path d="M16.7 12.3a1 1 0 00-1.4 0l-2 2a1 1 0 001.4 1.4l2-2c.4-.4.4-1 0-1.4zM35.7 6.3a1 1 0 00-1.4 0l-2 2a1 1 0 001.4 1.4l2-2c.4-.4.4-1 0-1.4z" id="Shape"/></g></g></g></g></svg>