<svg xmlns="http://www.w3.org/2000/svg" viewBox="0 0 48 48"><g transform="translate(-2 -4)" fill="none" fill-rule="evenodd"><circle fill="none" cx="26" cy="26" r="26"/><g fill="#333" fill-rule="nonzero"><path d="M27.1 21a3 3 0 00-3-3 3 3 0 00-3.1 3v12.3a4 4 0 00-1 2.6 4 4 0 004 4 4 4 0 004.1-4 4 4 0 00-1-2.6V21zm-3 17a2 2 0 01-2.1-2c0-.6.2-1.1.7-1.5.2-.2.3-.5.3-.8V21c0-.5.5-1 1-1 .6 0 1 .5 1 1v12.7c0 .3.2.6.4.8.4.4.7.9.7 1.4 0 1.1-1 2-2 2z"/><path d="M46 30h-4v-4h3a1 1 0 00.7-1.7l-21-20a1 1 0 00-1.4 0l-21 20A1 1 0 003 26h3v19c0 .6.4 1 1 1h27.3A8 8 0 0050 44V34a4 4 0 00-4-4zm-12 4v10H8V25c0-.6-.4-1-1-1H5.5L24 6.4 42.5 24H41a1 1 0 00-1 1v5h-2a4 4 0 00-4 4zm14 10a6 6 0 01-12 0V34c0-1.1.9-2 2-2h8a2 2 0 012 2v10z"/><path d="M43.8 36h-1v-1a1 1 0 10-2 0v1h-1a1 1 0 100 2h1v1a1 1 0 102 0v-1h1a1 1 0 100-2zM43.8 43.8h-4a1 1 0 100 2h4a1 1 0 100-2z"/></g></g></svg>